<svg xmlns="http://www.w3.org/2000/svg" xmlns:xlink="http://www.w3.org/1999/xlink" width="500" zoomAndPan="magnify" viewBox="0 0 375 374.999991" height="500" preserveAspectRatio="xMidYMid meet" version="1.0"><defs><clipPath id="aac03c7c2d"><path d="M 199.355469 97.140625 L 249.535156 97.140625 L 249.535156 303.539062 L 199.355469 303.539062 Z M 199.355469 97.140625 " clip-rule="nonzero"/></clipPath><clipPath id="8b19c29081"><path d="M 206.855469 97.140625 L 242.035156 97.140625 C 246.175781 97.140625 249.535156 100.496094 249.535156 104.640625 L 249.535156 295.890625 C 249.535156 300.03125 246.175781 303.390625 242.035156 303.390625 L 206.855469 303.390625 C 202.710938 303.390625 199.355469 300.03125 199.355469 295.890625 L 199.355469 104.640625 C 199.355469 100.496094 202.710938 97.140625 206.855469 97.140625 Z M 206.855469 97.140625 " clip-rule="nonzero"/></clipPath><clipPath id="b600cc5790"><path d="M 0.355469 0.140625 L 50.535156 0.140625 L 50.535156 206.539062 L 0.355469 206.539062 Z M 0.355469 0.140625 " clip-rule="nonzero"/></clipPath><clipPath id="bcb3d4549b"><path d="M 7.855469 0.140625 L 43.035156 0.140625 C 47.175781 0.140625 50.535156 3.496094 50.535156 7.640625 L 50.535156 198.890625 C 50.535156 203.03125 47.175781 206.390625 43.035156 206.390625 L 7.855469 206.390625 C 3.710938 206.390625 0.355469 203.03125 0.355469 198.890625 L 0.355469 7.640625 C 0.355469 3.496094 3.710938 0.140625 7.855469 0.140625 Z M 7.855469 0.140625 " clip-rule="nonzero"/></clipPath><clipPath id="1060ffaa1b"><rect x="0" width="51" y="0" height="207"/></clipPath><clipPath id="3426cb2d50"><path d="M 125.464844 153.523438 L 175.644531 153.523438 L 175.644531 303.472656 L 125.464844 303.472656 Z M 125.464844 153.523438 " clip-rule="nonzero"/></clipPath><clipPath id="c2a93ddaed"><path d="M 132.964844 153.523438 L 168.144531 153.523438 C 172.289062 153.523438 175.644531 156.882812 175.644531 161.023438 L 175.644531 295.890625 C 175.644531 300.03125 172.289062 303.390625 168.144531 303.390625 L 132.964844 303.390625 C 128.824219 303.390625 125.464844 300.03125 125.464844 295.890625 L 125.464844 161.023438 C 125.464844 156.882812 128.824219 153.523438 132.964844 153.523438 Z M 132.964844 153.523438 " clip-rule="nonzero"/></clipPath><clipPath id="9caf457d6d"><path d="M 0.464844 0.523438 L 50.644531 0.523438 L 50.644531 150.472656 L 0.464844 150.472656 Z M 0.464844 0.523438 " clip-rule="nonzero"/></clipPath><clipPath id="451b4fda7e"><path d="M 7.964844 0.523438 L 43.144531 0.523438 C 47.289062 0.523438 50.644531 3.882812 50.644531 8.023438 L 50.644531 142.890625 C 50.644531 147.03125 47.289062 150.390625 43.144531 150.390625 L 7.964844 150.390625 C 3.824219 150.390625 0.464844 147.03125 0.464844 142.890625 L 0.464844 8.023438 C 0.464844 3.882812 3.824219 0.523438 7.964844 0.523438 Z M 7.964844 0.523438 " clip-rule="nonzero"/></clipPath><clipPath id="fe829b5b08"><rect x="0" width="51" y="0" height="151"/></clipPath></defs><path stroke-linecap="butt" transform="matrix(0, 0.75, -0.75, 0, 225.94017, 43.433284)" fill="none" stroke-linejoin="miter" d="M 0.000412536 1.998352 L 89.542085 1.998352 " stroke="#00423c" stroke-width="4" stroke-opacity="1" stroke-miterlimit="4"/><path stroke-linecap="butt" transform="matrix(0, 0.75, -0.75, 0, 225.94017, 264.418255)" fill="none" stroke-linejoin="miter" d="M -0.000381182 1.998352 L 89.541291 1.998352 " stroke="#00423c" stroke-width="4" stroke-opacity="1" stroke-miterlimit="4"/><g clip-path="url(#aac03c7c2d)"><g clip-path="url(#8b19c29081)"><g transform="matrix(1, 0, 0, 1, 199, 97)"><g clip-path="url(#1060ffaa1b)"><g clip-path="url(#b600cc5790)"><g clip-path="url(#bcb3d4549b)"><path fill="#00ac9c" d="M 0.355469 0.140625 L 50.535156 0.140625 L 50.535156 206.34375 L 0.355469 206.34375 Z M 0.355469 0.140625 " fill-opacity="1" fill-rule="nonzero"/></g></g></g></g></g></g><path stroke-linecap="butt" transform="matrix(0.000000001309, 0.75, -0.75, 0.000000001309, 152.051215, 264.418255)" fill="none" stroke-linejoin="miter" d="M -0.000381186 2.000578 L 89.541291 2.000578 " stroke="#601016" stroke-width="4" stroke-opacity="1" stroke-miterlimit="4"/><path stroke-linecap="butt" transform="matrix(0.000000001309, 0.75, -0.75, 0.000000001309, 152.051215, 87.870441)" fill="none" stroke-linejoin="miter" d="M 0.000870823 2.000578 L 89.542543 2.000578 " stroke="#601016" stroke-width="4" stroke-opacity="1" stroke-miterlimit="4"/><g clip-path="url(#3426cb2d50)"><g clip-path="url(#c2a93ddaed)"><g transform="matrix(1, 0, 0, 1, 125, 153)"><g clip-path="url(#fe829b5b08)"><g clip-path="url(#9caf457d6d)"><g clip-path="url(#451b4fda7e)"><path fill="#ff2234" d="M 0.464844 0.523438 L 50.644531 0.523438 L 50.644531 150.472656 L 0.464844 150.472656 Z M 0.464844 0.523438 " fill-opacity="1" fill-rule="nonzero"/></g></g></g></g></g></g></svg>